<?xml version="1.0" encoding="UTF-8" standalone="no"?>
<svg
   viewBox="0 0 244.35895 76.64385"
   version="1.1"
   id="svg1013"
   sodipodi:docname="logo-light.svg"
   inkscape:version="1.1.1 (3bf5ae0d25, 2021-09-20)"
   width="244.35896"
   height="76.643852"
   xmlns:inkscape="http://www.inkscape.org/namespaces/inkscape"
   xmlns:sodipodi="http://sodipodi.sourceforge.net/DTD/sodipodi-0.dtd"
   xmlns="http://www.w3.org/2000/svg"
   xmlns:svg="http://www.w3.org/2000/svg"
   xmlns:rdf="http://www.w3.org/1999/02/22-rdf-syntax-ns#"
   xmlns:cc="http://creativecommons.org/ns#"
   xmlns:dc="http://purl.org/dc/elements/1.1/">
  <sodipodi:namedview
     id="namedview1015"
     pagecolor="#ffffff"
     bordercolor="#666666"
     borderopacity="1.0"
     inkscape:pageshadow="2"
     inkscape:pageopacity="0.0"
     inkscape:pagecheckerboard="0"
     showgrid="false"
     inkscape:zoom="6.1315046"
     inkscape:cx="55.125132"
     inkscape:cy="29.764309"
     inkscape:window-width="1920"
     inkscape:window-height="991"
     inkscape:window-x="-9"
     inkscape:window-y="-9"
     inkscape:window-maximized="1"
     inkscape:current-layer="etc"
     fit-margin-left="4"
     fit-margin-right="4"
     fit-margin-top="4"
     fit-margin-bottom="4" />
  <defs
     id="defs921">
    <style
       id="style919">
#etc { 
    stroke:black;
    fill:black;
}
#etc { fill:black;    stroke:black; }
.cls-1,.cls-8 { fill:none; }
.cls-1,.cls-3,.cls-4,.cls-5,.cls-6 { stroke:#000000; }
.cls-1,.cls-4,.cls-6,.cls-8 { stroke-width:2px; }
.cls-2,.cls-6 { fill:#000000; }
.cls-3,.cls-4,.cls-5,.cls-7 { fill:#fff; }
.cls-5 { stroke-width:0.25px; }
.cls-8 { stroke:#000; }
</style>
  </defs>
  <title
     id="title923">logo-full</title>
  <g
     id="etc"
     style="fill-opacity:1;stroke-opacity:1"
     transform="translate(7.5076281,6.9999315)">
    <path
       class="cls-1"
       d="M 224.19934,59.49 H 82 C 77.381282,59.4845 73.639997,55.738721 73.64,51.12 V 21.78 l -7.53,-8.36 h 158.11934 c 4.61482,0.0055 8.35449,3.745184 8.36,8.36 v 29.34 c 2e-5,4.630445 -3.75957,8.381064 -8.39,8.37 z"
       id="path959"
       style="fill:none;fill-opacity:1;stroke:#000000;stroke-opacity:1"
       inkscape:label="bubble"
       transform="translate(-0.99,-4.1)"
       sodipodi:nodetypes="ccccccccc" />
    <path
       d="M 100.16063,24.273536 A 1.9218423,1.9218423 0 0 1 98.371332,22.848722 2.9987368,2.9987368 0 0 0 97.41041,21.407341 4.9702819,4.9702819 0 0 0 95.472001,21.191962 q -2.683953,0 -5.980906,4.125334 a 17.180608,17.180608 0 0 0 -4.456686,10.503862 5.9643383,5.9643383 0 0 0 1.540787,4.125334 4.9702819,4.9702819 0 0 0 3.810549,1.789302 8.5323173,8.5323173 0 0 0 3.843685,-0.977489 29.705718,29.705718 0 0 0 3.313521,-2.203492 3.3135213,3.3135213 0 0 1 1.540788,-0.795245 1.6567606,1.6567606 0 0 1 1.341971,0.613001 1.9384099,1.9384099 0 0 1 0.54674,1.341977 1.9052747,1.9052747 0 0 1 -0.71241,1.474517 14.910846,14.910846 0 0 1 -9.940565,4.340712 8.416344,8.416344 0 0 1 -6.511069,-2.949034 9.8411582,9.8411582 0 0 1 -2.567979,-6.776151 c 0,-4.191604 1.772734,-8.499182 5.285066,-12.922733 q 4.406983,-5.517012 8.880237,-5.517012 a 15.92147,15.92147 0 0 1 1.656761,0.08284 8.4329116,8.4329116 0 0 1 1.292273,0.265081 1.9715452,1.9715452 0 0 1 1.656756,-0.944353 c 0.84495,0 1.39168,0.563298 1.65677,1.65676 a 19.51664,19.51664 0 0 1 0.29821,3.711144 2.2697621,2.2697621 0 0 1 -0.39762,1.325409 1.6567606,1.6567606 0 0 1 -1.40825,0.811812 z"
       id="path961"
       style="fill:#000000;fill-opacity:1;stroke:none;stroke-width:1.65676;stroke-opacity:1" />
    <path
       d="m 120.72103,46.291885 a 1.6567606,1.6567606 0 0 1 -1.65676,-1.408246 32.124589,32.124589 0 0 1 -0.77868,-4.340713 35.206164,35.206164 0 0 1 -0.33135,-4.423551 c 0,-0.314785 0,-0.811813 0,-1.474517 0,-0.662704 0,-1.143165 0,-1.457949 0,-2.336033 -0.57986,-3.495765 -1.7396,-3.495765 a 5.5170129,5.5170129 0 0 0 -4.22474,2.137221 25.182762,25.182762 0 0 0 -2.60111,4.175037 31.180235,31.180235 0 0 1 -0.57987,8.383209 1.6567606,1.6567606 0 0 1 -1.65676,1.159732 1.9881128,1.9881128 0 0 1 -1.32541,-0.513596 1.6567606,1.6567606 0 0 1 -0.57986,-1.275706 2.9987368,2.9987368 0 0 1 0.16567,-0.811812 14.629196,14.629196 0 0 0 0.29822,-2.717088 V 37.477919 23.809643 c 0,-1.540787 0.13254,-2.567979 0.13254,-3.098142 a 8.8471018,8.8471018 0 0 0 -0.13254,-1.789301 8.9299398,8.9299398 0 0 1 -0.18224,-1.772734 1.6567606,1.6567606 0 0 1 0.54673,-1.292274 1.8887071,1.8887071 0 0 1 1.32541,-0.497028 1.6567606,1.6567606 0 0 1 1.77273,1.656761 20.21248,20.21248 0 0 1 0.29822,3.313521 c 0,1.292273 0,2.650817 -0.13254,4.075631 -0.13254,1.424814 -0.0994,2.70052 0,4.059064 v 1.65676 a 11.265972,11.265972 0 0 1 3.31352,-3.065007 7.3394496,7.3394496 0 0 1 3.69457,-1.010624 4.5063889,4.5063889 0 0 1 4.24131,2.004681 11.232837,11.232837 0 0 1 0.92779,4.77147 l 0.14911,3.545468 0.36448,3.860252 c 0.18225,1.45795 0.38106,2.733655 0.62957,3.843685 a 2.3028973,2.3028973 0 0 1 0,0.530163 1.6567606,1.6567606 0 0 1 -0.5633,1.275706 1.8555719,1.8555719 0 0 1 -1.37511,0.41419 z"
       id="path963"
       style="fill:#000000;fill-opacity:1;stroke:none;stroke-width:1.65676;stroke-opacity:1" />
    <path
       d="m 141.67905,46.358156 c -0.23194,0 -0.6627,-0.265082 -1.29227,-0.811813 a 9.5429413,9.5429413 0 0 1 -1.24257,-1.358544 24.85141,24.85141 0 0 1 -3.13128,1.45795 6.9583947,6.9583947 0 0 1 -2.26976,0.497028 7.7370722,7.7370722 0 0 1 -6.34539,-2.452006 11.133431,11.133431 0 0 1 -1.80587,-7.074368 10.603268,10.603268 0 0 1 3.09814,-7.687369 9.9405638,9.9405638 0 0 1 7.38915,-3.197548 9.6257793,9.6257793 0 0 1 3.61174,0.82838 c 1.65676,0.69584 2.53485,1.540787 2.53485,2.518276 a 1.2591381,1.2591381 0 0 1 -0.36449,0.894651 12.226894,12.226894 0 0 0 -0.29822,2.319465 c 0,1.076894 -0.0994,2.452006 -0.11597,4.141901 a 15.358171,15.358171 0 0 0 0.31478,3.644874 25.944872,25.944872 0 0 0 1.1763,3.313521 c 0,0.215379 0.21538,0.546731 0.43076,0.977489 l 0.0994,0.314784 a 1.6567606,1.6567606 0 0 1 -0.5136,1.226003 1.6567606,1.6567606 0 0 1 -1.27571,0.447326 z m -3.87682,-12.922733 a 12.889598,12.889598 0 0 1 0.11598,-1.656761 c 0,-0.629569 0.16567,-1.292273 0.29821,-2.00468 a 10.735809,10.735809 0 0 0 -1.1763,-0.530164 3.0815748,3.0815748 0 0 0 -0.79524,-0.165676 6.4779341,6.4779341 0 0 0 -4.97028,2.3526 7.9358835,7.9358835 0 0 0 -2.08752,5.417608 7.9524511,7.9524511 0 0 0 1.07689,4.572659 3.661441,3.661441 0 0 0 3.31353,1.540787 6.5110693,6.5110693 0 0 0 3.03187,-0.662704 10.155943,10.155943 0 0 0 1.87214,-1.408246 67.380455,67.380455 0 0 1 -0.67928,-7.455423 z"
       id="path965"
       style="fill:#000000;fill-opacity:1;stroke:none;stroke-width:1.65676;stroke-opacity:1" />
    <path
       d="m 159.07504,29.293521 c -0.26508,0 -0.5633,0 -0.91122,0 -0.34792,0 -0.6627,0 -0.92778,0 -0.26508,0 -1.1266,0 -2.53485,0.281649 l 0.36449,10.984323 v 1.756167 c 0,2.717087 -0.59643,4.075631 -1.95498,4.075631 a 1.9218423,1.9218423 0 0 1 -1.29227,-0.480461 1.6567606,1.6567606 0 0 1 -0.54673,-1.209435 c 0,-0.463893 0,-1.1763 0,-2.120654 0,-0.944353 0,-1.65676 0,-2.120653 l -0.23195,-10.984323 c -0.89465,0 -2.26976,-0.149109 -4.12533,-0.314785 a 1.6567606,1.6567606 0 0 1 -1.65676,-1.839004 1.9218423,1.9218423 0 0 1 0.51359,-1.358544 1.6567606,1.6567606 0 0 1 1.27571,-0.546731 l 3.90995,0.314785 c 0,-0.629569 0,-1.474517 0,-2.534844 0,-1.060327 -0.0828,-1.822437 -0.0828,-2.28633 a 1.6567606,1.6567606 0 0 1 0.53016,-1.292273 1.8555719,1.8555719 0 0 1 1.32541,-0.513596 c 1.11003,0 1.75616,0.911219 1.95498,2.733655 0,0.447326 0,1.010624 0,1.656761 v 1.093462 1.143165 q 2.30289,-0.298217 2.63425,-0.298217 a 11.199702,11.199702 0 0 1 2.53484,0.182244 1.6567606,1.6567606 0 0 1 1.1266,1.756166 1.8058691,1.8058691 0 0 1 -0.5136,1.341976 1.6567606,1.6567606 0 0 1 -1.39168,0.579866 z"
       id="path967"
       style="fill:#000000;fill-opacity:1;stroke:none;stroke-width:1.65676;stroke-opacity:1" />
    <path
       d="m 173.25691,46.043371 a 10.404457,10.404457 0 0 1 -6.79272,-2.104086 7.8861806,7.8861806 0 0 1 -2.76679,-6.560772 13.602005,13.602005 0 0 1 2.33604,-8.101559 7.9690187,7.9690187 0 0 1 6.80928,-3.562036 10.835215,10.835215 0 0 1 4.97028,1.027192 4.1916044,4.1916044 0 0 1 2.45201,3.94309 4.2744424,4.2744424 0 0 1 -2.10409,3.396359 30.03707,30.03707 0 0 1 -4.00936,2.021248 l -7.1075,3.313522 a 7.0080975,7.0080975 0 0 0 2.60111,2.336032 8.0518567,8.0518567 0 0 0 3.61174,0.778678 11.746433,11.746433 0 0 0 3.01531,-0.480461 4.9702819,4.9702819 0 0 0 2.83306,-1.656761 c 0.41419,-0.679271 0.86151,-1.010624 1.35854,-1.010624 a 1.6567606,1.6567606 0 0 1 1.15973,0.497029 1.6567606,1.6567606 0 0 1 0.5136,1.143164 c 0,1.375112 -1.11003,2.567979 -3.31352,3.562036 a 13.867087,13.867087 0 0 1 -5.56672,1.457949 z m -0.49703,-16.932094 a 4.7714706,4.7714706 0 0 0 -3.77741,1.756167 11.912109,11.912109 0 0 0 -2.25319,5.235363 l 5.71582,-2.717087 a 24.0893,24.0893 0 0 0 4.78804,-2.849628 6.3619608,6.3619608 0 0 0 -4.47326,-1.474517 z"
       id="path969"
       style="fill:#000000;fill-opacity:1;stroke:none;stroke-width:1.65676;stroke-opacity:1" />
    <path
       d="m 199.96389,46.358156 c -0.24851,0 -0.6627,-0.265082 -1.29227,-0.811813 a 8.6317229,8.6317229 0 0 1 -1.24257,-1.358544 23.840786,23.840786 0 0 1 -3.14785,1.45795 6.7927186,6.7927186 0 0 1 -2.25319,0.497028 7.7205046,7.7205046 0 0 1 -6.34539,-2.452006 11.034026,11.034026 0 0 1 -1.87214,-7.074368 10.652971,10.652971 0 0 1 3.08157,-7.687369 9.9405638,9.9405638 0 0 1 7.38915,-3.197548 9.7748878,9.7748878 0 0 1 3.62831,0.82838 c 1.65676,0.69584 2.53484,1.540787 2.53484,2.518276 a 1.2922733,1.2922733 0 0 1 -0.38105,0.894651 14.231574,14.231574 0 0 0 -0.28165,2.319465 c 0,1.076894 -0.11597,2.452006 -0.11597,4.141901 a 14.529791,14.529791 0 0 0 0.31478,3.644874 27.817011,27.817011 0 0 0 1.15973,3.313521 c 0.0994,0.215379 0.23195,0.546731 0.43076,0.977489 l 0.11597,0.314784 a 1.6567606,1.6567606 0 0 1 -0.51359,1.226003 1.6567606,1.6567606 0 0 1 -1.20944,0.447326 z m -3.87682,-12.922733 a 16.169984,16.169984 0 0 1 0.0994,-1.656761 c 0,-0.629569 0.18224,-1.292273 0.31478,-2.00468 a 12.342867,12.342867 0 0 0 -1.1763,-0.530164 3.0815748,3.0815748 0 0 0 -0.79524,-0.165676 6.4779341,6.4779341 0 0 0 -4.97028,2.3526 7.9358835,7.9358835 0 0 0 -2.08752,5.417608 7.8364778,7.8364778 0 0 0 1.07689,4.572659 3.661441,3.661441 0 0 0 3.23069,1.540787 6.5110693,6.5110693 0 0 0 3.03187,-0.662704 10.155943,10.155943 0 0 0 1.87214,-1.408246 67.380455,67.380455 0 0 1 -0.59644,-7.455423 z"
       id="path971"
       style="fill:#000000;fill-opacity:1;stroke:none;stroke-width:1.65676;stroke-opacity:1" />
    <path
       d="m 220.02727,34.280371 c 0,0.89465 0,2.236627 0,4.00936 0,1.772734 0,3.131278 0,4.025929 0,0.265081 0,0.679272 0,1.24257 0,0.563299 0,0.977489 0,1.242571 a 1.6567606,1.6567606 0 0 1 -0.54674,1.308841 1.7893015,1.7893015 0 0 1 -1.30884,0.513595 c -0.96092,0 -1.65676,-0.596433 -1.82243,-1.772733 a 11.381946,11.381946 0 0 1 -5.35134,1.209435 7.0080975,7.0080975 0 0 1 -4.0425,-1.076895 4.8708763,4.8708763 0 0 1 -2.10408,-3.479197 61.018494,61.018494 0 0 1 -0.71241,-8.764264 35.322137,35.322137 0 0 1 0.54673,-5.798662 1.6567606,1.6567606 0 0 1 1.77274,-1.656761 1.8555719,1.8555719 0 0 1 1.34197,0.513596 1.7727339,1.7727339 0 0 1 0.53017,1.308841 21.206536,21.206536 0 0 1 -0.26509,2.733655 21.289374,21.289374 0 0 0 -0.26508,2.866196 q 0,3.11471 0.19881,5.318202 a 18.605422,18.605422 0 0 0 0.613,3.545467 5.7489594,5.7489594 0 0 0 1.20944,0.513596 4.1419016,4.1419016 0 0 0 1.1763,0.182244 19.03618,19.03618 0 0 0 5.25193,-0.811813 v -3.694576 -3.595171 a 60.554601,60.554601 0 0 1 0.34792,-6.974962 1.6567606,1.6567606 0 0 1 1.80587,-1.656761 1.8555719,1.8555719 0 0 1 1.34198,0.513596 1.6567606,1.6567606 0 0 1 0.49702,1.308841 z"
       id="path973"
       style="fill:#000000;fill-opacity:1;stroke:none;stroke-width:1.65676;stroke-opacity:1" />
  </g>
  <g
     id="g1158"
     inkscape:groupmode="layer"
     inkscape:label="g1158bg"
     transform="translate(7.5076281,6.9999315)">
    <g
       id="g1156"
       data-name="katman 1">
      <path
         class="cls-2"
         d="m 44.59,26.19 h -21.2 c -2.68,0 -4.69,1.88 -4.48,4.15 l 2.34,25.81 c 0.14,1.58 2,2.84 4.18,2.84 h 17.12 c 2.17,0 4,-1.26 4.18,-2.84 l 2.34,-25.81 c 0.21,-2.27 -1.8,-4.15 -4.48,-4.15 z"
         transform="translate(-0.99,-4.1)"
         id="path1120"
         style="stroke:#ffffff;stroke-width:8;stroke-miterlimit:4;stroke-dasharray:none;stroke-opacity:1" />
      <rect
         class="cls-3"
         x="44.849998"
         y="42.509998"
         width="13.84"
         height="26.530001"
         rx="4.0900002"
         transform="rotate(100.73,52.970654,53.309302)"
         id="rect1122"
         style="stroke:#ffffff;stroke-width:8;stroke-miterlimit:4;stroke-dasharray:none;stroke-opacity:1" />
      <path
         class="cls-4"
         d="m 63.51,65 -2.95,-0.56 c -5.91,-1.12 -4.62,-7.92 1.28,-6.8 l 3,0.56 -3,-0.56 c -5.9,-1.12 -4.61,-7.92 1.29,-6.8 l 2.95,0.56 z"
         transform="translate(-0.99,-4.1)"
         id="path1124"
         style="stroke:#ffffff;stroke-width:8;stroke-miterlimit:4;stroke-dasharray:none;stroke-opacity:1" />
      <rect
         class="cls-3"
         x="9.5600004"
         y="42.549999"
         width="13.84"
         height="26.530001"
         rx="4.0900002"
         transform="rotate(79.27,18.460401,53.166163)"
         id="rect1126"
         style="stroke:#ffffff;stroke-width:8;stroke-miterlimit:4;stroke-dasharray:none;stroke-opacity:1" />
      <path
         class="cls-4"
         d="m 2.16,51.48 3,-0.56 C 11,49.8 12.3,56.6 6.4,57.72 l -2.95,0.56 3,-0.56 c 5.9,-1.12 7.19,5.68 1.29,6.8 l -3,0.56 z"
         transform="translate(-0.99,-4.1)"
         id="path1128"
         style="stroke:#ffffff;stroke-width:8;stroke-miterlimit:4;stroke-dasharray:none;stroke-opacity:1" />
      <rect
         class="cls-3"
         x="35.700001"
         y="32.529999"
         width="13.84"
         height="30.48"
         rx="4.0900002"
         transform="rotate(5.01,88.992527,34.467135)"
         id="rect1130"
         style="stroke:#ffffff;stroke-width:8;stroke-miterlimit:4;stroke-dasharray:none;stroke-opacity:1" />
      <path
         class="cls-4"
         d="m 34.39,62.35 0.27,-3 c 0.52,-6 7.41,-5.38 6.89,0.61 l -0.26,3 0.26,-3 c 0.52,-6 7.41,-5.38 6.89,0.6 l -0.26,3 z"
         transform="translate(-0.99,-4.1)"
         id="path1132"
         style="stroke:#ffffff;stroke-width:8;stroke-miterlimit:4;stroke-dasharray:none;stroke-opacity:1" />
      <rect
         class="cls-3"
         x="17.120001"
         y="32.529999"
         width="13.84"
         height="30.48"
         rx="4.0900002"
         transform="rotate(174.99,23.634479,45.704302)"
         id="rect1134"
         style="stroke:#ffffff;stroke-width:8;stroke-miterlimit:4;stroke-dasharray:none;stroke-opacity:1" />
      <path
         class="cls-4"
         d="m 18.48,63.56 -0.27,-3 c -0.52,-6 6.37,-6.59 6.9,-0.61 l 0.26,3 -0.26,-3 c -0.53,-6 6.36,-6.59 6.89,-0.6 l 0.26,3 z"
         transform="translate(-0.99,-4.1)"
         id="path1136"
         style="stroke:#ffffff;stroke-width:8;stroke-miterlimit:4;stroke-dasharray:none;stroke-opacity:1" />
      <rect
         class="cls-4"
         x="17.4"
         y="7.9099998"
         width="10"
         height="15"
         rx="3"
         transform="rotate(-7.42,-9.7228889,20.973713)"
         id="rect1138"
         style="stroke:#ffffff;stroke-width:8;stroke-miterlimit:4;stroke-dasharray:none;stroke-opacity:1" />
      <rect
         class="cls-4"
         x="37.23"
         y="5.3200002"
         width="10"
         height="15"
         rx="3"
         transform="rotate(-7.42,10.113072,18.388209)"
         id="rect1140"
         style="stroke:#ffffff;stroke-width:8;stroke-miterlimit:4;stroke-dasharray:none;stroke-opacity:1" />
      <rect
         class="cls-5"
         x="19.209999"
         y="10.92"
         width="6"
         height="6"
         rx="2"
         transform="rotate(-7.42,-9.8592191,19.493621)"
         id="rect1142"
         style="stroke:#ffffff;stroke-width:8;stroke-miterlimit:4;stroke-dasharray:none;stroke-opacity:1" />
      <rect
         class="cls-5"
         x="39.040001"
         y="8.3299999"
         width="6"
         height="6"
         rx="2"
         transform="rotate(-7.42,9.9767417,16.908117)"
         id="rect1144"
         style="stroke:#ffffff;stroke-width:8;stroke-miterlimit:4;stroke-dasharray:none;stroke-opacity:1" />
      <path
         class="cls-2"
         d="m 22,11.93 v 0 a 2,2 0 0 1 2.24,1.73 v 0 a 2,2 0 0 1 -1.72,2.24 v 0 a 2,2 0 0 1 -2.25,-1.72 v 0 A 2,2 0 0 1 22,11.93 Z"
         transform="translate(-0.99,-4.1)"
         id="path1146"
         style="stroke:#ffffff;stroke-width:8;stroke-miterlimit:4;stroke-dasharray:none;stroke-opacity:1" />
      <path
         class="cls-2"
         d="m 41.78,9.35 v 0 A 2,2 0 0 1 44,11.08 v 0 a 2,2 0 0 1 -1.72,2.24 v 0 a 2,2 0 0 1 -2.24,-1.73 v 0 a 2,2 0 0 1 1.74,-2.24 z"
         transform="translate(-0.99,-4.1)"
         id="path1148"
         style="stroke:#ffffff;stroke-width:8;stroke-miterlimit:4;stroke-dasharray:none;stroke-opacity:1" />
      <rect
         class="cls-6"
         x="8.6099997"
         y="16.530001"
         width="50"
         height="15"
         rx="3"
         transform="rotate(-7.42,1.4878436,29.598941)"
         id="rect1150"
         style="stroke:#ffffff;stroke-width:8;stroke-miterlimit:4;stroke-dasharray:none;stroke-opacity:1" />
      <rect
         class="cls-7"
         x="11.61"
         y="19.530001"
         width="44"
         height="9"
         rx="3"
         transform="rotate(-7.42,1.4878436,29.598941)"
         id="rect1152"
         style="stroke:#ffffff;stroke-width:8;stroke-miterlimit:4;stroke-dasharray:none;stroke-opacity:1" />
      <path
         class="cls-8"
         d="m 12.38,31.33 4.29,-9.63 6.61,8.21 4.29,-9.63 6.62,8.21 4.29,-9.63 6.62,8.21 4.29,-9.63 6.61,8.21"
         transform="translate(-0.99,-4.1)"
         id="path1154"
         style="stroke:#ffffff;stroke-width:8;stroke-miterlimit:4;stroke-dasharray:none;stroke-opacity:1" />
    </g>
  </g>
  <g
     id="g1118"
     style="display:inline"
     transform="translate(7.5076281,6.9999315)">
    <g
       id="katman_1"
       data-name="katman 1">
      <path
         class="cls-2"
         d="m 44.59,26.19 h -21.2 c -2.68,0 -4.69,1.88 -4.48,4.15 l 2.34,25.81 c 0.14,1.58 2,2.84 4.18,2.84 h 17.12 c 2.17,0 4,-1.26 4.18,-2.84 l 2.34,-25.81 c 0.21,-2.27 -1.8,-4.15 -4.48,-4.15 z"
         transform="translate(-0.99,-4.1)"
         id="path976" />
      <rect
         class="cls-3"
         x="44.849998"
         y="42.509998"
         width="13.84"
         height="26.530001"
         rx="4.0900002"
         transform="rotate(100.73,52.970654,53.309302)"
         id="rect978" />
      <path
         class="cls-4"
         d="m 63.51,65 -2.95,-0.56 c -5.91,-1.12 -4.62,-7.92 1.28,-6.8 l 3,0.56 -3,-0.56 c -5.9,-1.12 -4.61,-7.92 1.29,-6.8 l 2.95,0.56 z"
         transform="translate(-0.99,-4.1)"
         id="path980" />
      <rect
         class="cls-3"
         x="9.5600004"
         y="42.549999"
         width="13.84"
         height="26.530001"
         rx="4.0900002"
         transform="rotate(79.27,18.460401,53.166163)"
         id="rect982" />
      <path
         class="cls-4"
         d="m 2.16,51.48 3,-0.56 C 11,49.8 12.3,56.6 6.4,57.72 l -2.95,0.56 3,-0.56 c 5.9,-1.12 7.19,5.68 1.29,6.8 l -3,0.56 z"
         transform="translate(-0.99,-4.1)"
         id="path984" />
      <rect
         class="cls-3"
         x="35.700001"
         y="32.529999"
         width="13.84"
         height="30.48"
         rx="4.0900002"
         transform="rotate(5.01,88.992527,34.467135)"
         id="rect986" />
      <path
         class="cls-4"
         d="m 34.39,62.35 0.27,-3 c 0.52,-6 7.41,-5.38 6.89,0.61 l -0.26,3 0.26,-3 c 0.52,-6 7.41,-5.38 6.89,0.6 l -0.26,3 z"
         transform="translate(-0.99,-4.1)"
         id="path988" />
      <rect
         class="cls-3"
         x="17.120001"
         y="32.529999"
         width="13.84"
         height="30.48"
         rx="4.0900002"
         transform="rotate(174.99,23.634479,45.704302)"
         id="rect990" />
      <path
         class="cls-4"
         d="m 18.48,63.56 -0.27,-3 c -0.52,-6 6.37,-6.59 6.9,-0.61 l 0.26,3 -0.26,-3 c -0.53,-6 6.36,-6.59 6.89,-0.6 l 0.26,3 z"
         transform="translate(-0.99,-4.1)"
         id="path992" />
      <rect
         class="cls-4"
         x="17.4"
         y="7.9099998"
         width="10"
         height="15"
         rx="3"
         transform="rotate(-7.42,-9.7228889,20.973713)"
         id="rect994" />
      <rect
         class="cls-4"
         x="37.23"
         y="5.3200002"
         width="10"
         height="15"
         rx="3"
         transform="rotate(-7.42,10.113072,18.388209)"
         id="rect996" />
      <rect
         class="cls-5"
         x="19.209999"
         y="10.92"
         width="6"
         height="6"
         rx="2"
         transform="rotate(-7.42,-9.8592191,19.493621)"
         id="rect998" />
      <rect
         class="cls-5"
         x="39.040001"
         y="8.3299999"
         width="6"
         height="6"
         rx="2"
         transform="rotate(-7.42,9.9767417,16.908117)"
         id="rect1000" />
      <path
         class="cls-2"
         d="m 22,11.93 v 0 a 2,2 0 0 1 2.24,1.73 v 0 a 2,2 0 0 1 -1.72,2.24 v 0 a 2,2 0 0 1 -2.25,-1.72 v 0 A 2,2 0 0 1 22,11.93 Z"
         transform="translate(-0.99,-4.1)"
         id="path1002" />
      <path
         class="cls-2"
         d="m 41.78,9.35 v 0 A 2,2 0 0 1 44,11.08 v 0 a 2,2 0 0 1 -1.72,2.24 v 0 a 2,2 0 0 1 -2.24,-1.73 v 0 a 2,2 0 0 1 1.74,-2.24 z"
         transform="translate(-0.99,-4.1)"
         id="path1004" />
      <rect
         class="cls-6"
         x="8.6099997"
         y="16.530001"
         width="50"
         height="15"
         rx="3"
         transform="rotate(-7.42,1.4878436,29.598941)"
         id="rect1006" />
      <rect
         class="cls-7"
         x="11.61"
         y="19.530001"
         width="44"
         height="9"
         rx="3"
         transform="rotate(-7.42,1.4878436,29.598941)"
         id="rect1008" />
      <path
         class="cls-8"
         d="m 12.38,31.33 4.29,-9.63 6.61,8.21 4.29,-9.63 6.62,8.21 4.29,-9.63 6.62,8.21 4.29,-9.63 6.61,8.21"
         transform="translate(-0.99,-4.1)"
         id="path1010" />
    </g>
  </g>
  <metadata
     id="metadata1097">
    <rdf:RDF>
      <cc:Work
         rdf:about="">
        <dc:title>logo-full</dc:title>
      </cc:Work>
    </rdf:RDF>
  </metadata>
</svg>
