<?xml version="1.0" encoding="UTF-8" standalone="no"?>
<svg
   viewBox="0 0 185.06762 76.64385"
   version="1.1"
   id="svg1013"
   sodipodi:docname="logo-full.svg"
   inkscape:version="1.1.1 (3bf5ae0d25, 2021-09-20)"
   width="185.06763"
   height="76.643852"
   xmlns:inkscape="http://www.inkscape.org/namespaces/inkscape"
   xmlns:sodipodi="http://sodipodi.sourceforge.net/DTD/sodipodi-0.dtd"
   xmlns="http://www.w3.org/2000/svg"
   xmlns:svg="http://www.w3.org/2000/svg"
   xmlns:rdf="http://www.w3.org/1999/02/22-rdf-syntax-ns#"
   xmlns:cc="http://creativecommons.org/ns#"
   xmlns:dc="http://purl.org/dc/elements/1.1/">
  <sodipodi:namedview
     id="namedview1015"
     pagecolor="#ffffff"
     bordercolor="#666666"
     borderopacity="1.0"
     inkscape:pageshadow="2"
     inkscape:pageopacity="0.0"
     inkscape:pagecheckerboard="0"
     showgrid="false"
     inkscape:zoom="6.1315046"
     inkscape:cx="130.96296"
     inkscape:cy="29.764309"
     inkscape:window-width="1920"
     inkscape:window-height="991"
     inkscape:window-x="-9"
     inkscape:window-y="-9"
     inkscape:window-maximized="1"
     inkscape:current-layer="svg1013"
     fit-margin-left="4"
     fit-margin-right="4"
     fit-margin-top="4"
     fit-margin-bottom="4" />
  <defs
     id="defs921">
    <style
       id="style919">
#etc { fill:black;    stroke:black; }
.cls-1,.cls-8 { fill:none; }
.cls-1,.cls-3,.cls-4,.cls-5,.cls-6 { stroke:#1d1d1b; }
.cls-1,.cls-4,.cls-6,.cls-8 { stroke-width:2px; }
.cls-2,.cls-6 { fill:#1d1d1b; }
.cls-3,.cls-4,.cls-5,.cls-7 { fill:#fff; }
.cls-5 { stroke-width:0.25px; }
.cls-8 { stroke:#000; }
</style>
  </defs>
  <title
     id="title923">logo-full</title>
  <g
     id="etc"
     style="fill-opacity:1;stroke-opacity:1"
     transform="translate(7.5076281,6.9999315)">
    <path
       d="m 82.42,48.2 a 0.6,0.6 0 0 1 -0.07,-0.38 0.44,0.44 0 0 1 0.14,-0.26 0.35,0.35 0 0 1 0.26,-0.1 0.54,0.54 0 0 1 0.34,0.13 2.07,2.07 0 0 0 0.59,0.52 2.11,2.11 0 0 0 0.74,0.22 l 0.23,-0.07 0.12,-0.1 v 0 0 L 85,48 a 0.22,0.22 0 0 0 0,-0.1 v -0.1 -0.1 a 0.41,0.41 0 0 0 0,-0.11 v -0.26 l -0.07,-0.09 -0.07,-0.09 a 2.27,2.27 0 0 0 -0.54,-0.27 l -0.53,-0.16 a 3.22,3.22 0 0 1 -0.5,-0.23 1.39,1.39 0 0 1 -0.46,-0.45 1.18,1.18 0 0 1 -0.23,-0.64 1.87,1.87 0 0 1 0.11,-0.7 1.9,1.9 0 0 1 0.37,-0.59 1,1 0 0 1 0.56,-0.33 2,2 0 0 1 0.93,0 2.79,2.79 0 0 1 0.89,0.32 0.54,0.54 0 0 1 0.23,0.34 0.51,0.51 0 0 1 -0.05,0.33 0.44,0.44 0 0 1 -0.25,0.19 0.51,0.51 0 0 1 -0.39,0 1.59,1.59 0 0 0 -0.55,-0.2 1.88,1.88 0 0 0 -0.58,0 0.09,0.09 0 0 1 -0.07,0 h -0.07 a 0.81,0.81 0 0 0 -0.17,0.27 0.68,0.68 0 0 0 0,0.33 l 0.06,0.14 0.06,0.08 0.07,0.08 a 2.44,2.44 0 0 0 0.57,0.24 6,6 0 0 1 0.6,0.19 2.62,2.62 0 0 1 0.55,0.29 1.29,1.29 0 0 1 0.39,0.53 1.77,1.77 0 0 1 0.08,1.21 1.8,1.8 0 0 1 -0.72,0.93 1.2,1.2 0 0 1 -0.32,0.16 1,1 0 0 1 -0.33,0.06 A 2.53,2.53 0 0 1 83.33,49 2.33,2.33 0 0 1 82.42,48.2 Z"
       transform="translate(-0.99,-4.1)"
       id="path925"
       style="fill:#000000;fill-opacity:1;stroke:none;stroke-opacity:1" />
    <path
       d="m 86.77,46.21 a 7.22,7.22 0 0 1 0.29,-0.72 3.49,3.49 0 0 1 0.41,-0.64 2.55,2.55 0 0 1 0.55,-0.49 2.13,2.13 0 0 1 0.69,-0.3 1.54,1.54 0 0 1 1.11,0.1 1.88,1.88 0 0 1 0.75,0.73 2.83,2.83 0 0 1 0.43,1.11 3,3 0 0 1 0,1.16 3.74,3.74 0 0 1 -0.58,1.27 2.38,2.38 0 0 1 -1,0.85 1.71,1.71 0 0 1 -0.9,0.14 1.65,1.65 0 0 1 -0.77,-0.29 2,2 0 0 1 -0.58,-0.64 2.51,2.51 0 0 1 -0.33,-0.88 3.23,3.23 0 0 1 0,-0.62 4.11,4.11 0 0 1 0.08,-0.6 z m 0.85,0.27 a 4.16,4.16 0 0 0 -0.06,0.44 2.4,2.4 0 0 0 0,0.46 1.33,1.33 0 0 0 0.19,0.56 1,1 0 0 0 0.37,0.38 0.86,0.86 0 0 0 0.48,0.13 1.15,1.15 0 0 0 0.54,-0.18 1.72,1.72 0 0 0 0.57,-0.6 3.11,3.11 0 0 0 0.32,-0.8 2,2 0 0 0 0,-0.74 1.87,1.87 0 0 0 -0.22,-0.69 1.08,1.08 0 0 0 -0.47,-0.43 0.83,0.83 0 0 0 -0.7,0 1.45,1.45 0 0 0 -0.68,0.59 3.21,3.21 0 0 0 -0.34,0.88 z"
       transform="translate(-0.99,-4.1)"
       id="path927"
       style="fill:#000000;fill-opacity:1;stroke:none;stroke-opacity:1" />
    <path
       d="m 91.94,46.21 a 5.5,5.5 0 0 1 0.3,-0.72 3,3 0 0 1 0.41,-0.64 2.33,2.33 0 0 1 0.55,-0.49 2.13,2.13 0 0 1 0.69,-0.3 1.51,1.51 0 0 1 1.1,0.1 1.9,1.9 0 0 1 0.76,0.73 3,3 0 0 1 0.33,2.24 3.74,3.74 0 0 1 -0.58,1.27 2.38,2.38 0 0 1 -1,0.85 1.72,1.72 0 0 1 -0.9,0.14 1.61,1.61 0 0 1 -0.77,-0.29 1.89,1.89 0 0 1 -0.58,-0.64 2.51,2.51 0 0 1 -0.33,-0.88 2.59,2.59 0 0 1 0,-0.62 4.09,4.09 0 0 1 0.07,-0.6 z m 0.85,0.27 a 4.16,4.16 0 0 0 -0.06,0.44 2.46,2.46 0 0 0 0,0.46 1.32,1.32 0 0 0 0.18,0.56 1.22,1.22 0 0 0 0.37,0.38 0.92,0.92 0 0 0 0.49,0.13 1.19,1.19 0 0 0 0.54,-0.18 1.82,1.82 0 0 0 0.57,-0.6 3.11,3.11 0 0 0 0.32,-0.8 2,2 0 0 0 0,-0.74 1.87,1.87 0 0 0 -0.23,-0.69 1,1 0 0 0 -0.46,-0.43 0.83,0.83 0 0 0 -0.7,0 1.52,1.52 0 0 0 -0.69,0.59 4,4 0 0 0 -0.33,0.88 z"
       transform="translate(-0.99,-4.1)"
       id="path929"
       style="fill:#000000;fill-opacity:1;stroke:none;stroke-opacity:1" />
    <path
       d="m 100.91,49.09 a 0.42,0.42 0 0 1 -0.3,0.14 0.41,0.41 0 0 1 -0.28,-0.12 0.58,0.58 0 0 1 -0.16,-0.38 c 0,-0.35 0,-0.71 0,-1.06 v -1.81 a 5,5 0 0 0 0,-0.77 0.44,0.44 0 0 0 -0.19,-0.21 0.61,0.61 0 0 0 -0.24,0 A 1.5,1.5 0 0 0 99,45 1.46,1.46 0 0 0 98.43,45.53 l -0.19,0.32 a 1.12,1.12 0 0 0 -0.09,0.39 v 1.18 c 0,0.39 0,0.78 0,1.18 A 0.61,0.61 0 0 1 98,49 0.45,0.45 0 0 1 97.7,49.13 0.41,0.41 0 0 1 97.42,49.01 0.58,0.58 0 0 1 97.26,48.63 v -1.04 c 0,-0.35 0,-0.69 0,-1 v -2.14 a 0.64,0.64 0 0 1 0.17,-0.35 0.36,0.36 0 0 1 0.27,-0.11 0.39,0.39 0 0 1 0.27,0.1 0.66,0.66 0 0 1 0.18,0.32 v 0.1 a 2.34,2.34 0 0 1 0.71,-0.46 2.09,2.09 0 0 1 0.8,-0.17 1.57,1.57 0 0 1 0.76,0.2 1.47,1.47 0 0 1 0.57,0.63 1.23,1.23 0 0 1 0.1,0.38 3.59,3.59 0 0 1 0,0.47 4.34,4.34 0 0 1 0,0.51 c 0,0.17 0,0.34 0,0.49 v 2.14 a 0.56,0.56 0 0 1 -0.18,0.39 z"
       transform="translate(-0.99,-4.1)"
       id="path931"
       style="fill:#000000;fill-opacity:1;stroke:none;stroke-opacity:1" />
    <path
       d="m 105.78,46.21 a 5.42,5.42 0 0 1 0.29,-0.72 3.49,3.49 0 0 1 0.41,-0.64 2.55,2.55 0 0 1 0.55,-0.49 2.13,2.13 0 0 1 0.69,-0.3 1.54,1.54 0 0 1 1.11,0.1 1.88,1.88 0 0 1 0.75,0.73 2.83,2.83 0 0 1 0.42,1.11 3,3 0 0 1 0,1.16 3.74,3.74 0 0 1 -0.58,1.27 2.38,2.38 0 0 1 -1,0.85 1.71,1.71 0 0 1 -0.9,0.14 1.65,1.65 0 0 1 -0.77,-0.29 2,2 0 0 1 -0.58,-0.64 2.51,2.51 0 0 1 -0.33,-0.88 3.23,3.23 0 0 1 0,-0.62 c 0,-0.2 0,-0.4 0.07,-0.6 z m 0.85,0.27 a 4.16,4.16 0 0 0 -0.06,0.44 2.4,2.4 0 0 0 0,0.46 1.33,1.33 0 0 0 0.19,0.56 1,1 0 0 0 0.37,0.38 0.86,0.86 0 0 0 0.48,0.13 1.15,1.15 0 0 0 0.54,-0.18 1.72,1.72 0 0 0 0.57,-0.6 3.11,3.11 0 0 0 0.32,-0.8 2,2 0 0 0 0,-0.74 1.87,1.87 0 0 0 -0.22,-0.69 1.08,1.08 0 0 0 -0.47,-0.43 0.83,0.83 0 0 0 -0.7,0 1.45,1.45 0 0 0 -0.68,0.59 3.21,3.21 0 0 0 -0.34,0.88 z"
       transform="translate(-0.99,-4.1)"
       id="path933"
       style="fill:#000000;fill-opacity:1;stroke:none;stroke-opacity:1" />
    <path
       d="m 114.74,49.09 a 0.39,0.39 0 0 1 -0.58,0 0.64,0.64 0 0 1 -0.16,-0.38 c 0,-0.35 0,-0.71 0,-1.06 v -1.79 a 4,4 0 0 0 0,-0.77 0.4,0.4 0 0 0 -0.19,-0.21 0.57,0.57 0 0 0 -0.24,0 1.5,1.5 0 0 0 -0.73,0.19 1.36,1.36 0 0 0 -0.56,0.53 c -0.08,0.13 -0.15,0.24 -0.19,0.32 a 1.09,1.09 0 0 0 -0.1,0.39 v 1.18 c 0,0.39 0,0.78 0,1.18 a 0.56,0.56 0 0 1 -0.14,0.4 0.45,0.45 0 0 1 -0.3,0.13 0.39,0.39 0 0 1 -0.28,-0.12 0.59,0.59 0 0 1 -0.17,-0.38 v -2.1 c 0,-0.34 0,-0.68 0,-1 v -1.15 a 0.72,0.72 0 0 1 0.18,-0.35 0.36,0.36 0 0 1 0.27,-0.11 0.39,0.39 0 0 1 0.26,0.1 0.53,0.53 0 0 1 0.18,0.32 v 0.1 a 2.27,2.27 0 0 1 0.72,-0.46 2.05,2.05 0 0 1 0.8,-0.17 1.53,1.53 0 0 1 0.75,0.2 1.36,1.36 0 0 1 0.57,0.63 1,1 0 0 1 0.1,0.38 c 0,0.15 0,0.31 0,0.47 0,0.16 0,0.34 0,0.51 0,0.17 0,0.34 0,0.49 v 2.14 a 0.52,0.52 0 0 1 -0.19,0.39 z"
       transform="translate(-0.99,-4.1)"
       id="path935"
       style="fill:#000000;fill-opacity:1;stroke:none;stroke-opacity:1" />
    <path
       d="m 120.6,48.86 a 0.61,0.61 0 0 1 -0.35,0.1 0.46,0.46 0 0 1 -0.26,-0.13 0.47,0.47 0 0 1 -0.11,-0.27 0.65,0.65 0 0 1 0.09,-0.37 v 0 -6 a 0.58,0.58 0 0 1 0.17,-0.33 0.36,0.36 0 0 1 0.53,0 0.66,0.66 0 0 1 0.19,0.33 v 2.74 a 1.88,1.88 0 0 1 0.52,-0.38 1.75,1.75 0 0 1 0.47,-0.21 3.4,3.4 0 0 1 0.5,-0.1 1,1 0 0 1 0.54,0.06 3.78,3.78 0 0 1 0.49,0.25 1.26,1.26 0 0 1 0.48,0.54 3.1,3.1 0 0 1 0.22,0.75 3.64,3.64 0 0 1 0.06,0.81 5,5 0 0 1 -0.07,0.73 0.88,0.88 0 0 1 -0.1,0.35 c 0,0.11 -0.1,0.22 -0.16,0.33 a 1.62,1.62 0 0 1 -0.41,0.55 2.34,2.34 0 0 1 -0.58,0.36 2.66,2.66 0 0 1 -0.67,0.18 2.35,2.35 0 0 1 -0.64,0 2.41,2.41 0 0 1 -0.48,-0.08 1.38,1.38 0 0 1 -0.45,-0.2 z m 0.29,-2.57 v 1.62 L 121,48 v 0 a 1.63,1.63 0 0 0 1.08,0.08 1.82,1.82 0 0 0 0.9,-0.63 3.35,3.35 0 0 0 0.16,-0.52 2.5,2.5 0 0 0 0.05,-0.47 2.61,2.61 0 0 0 -0.05,-0.48 2.89,2.89 0 0 0 -0.14,-0.52 l -0.09,-0.12 -0.09,-0.12 -0.11,-0.06 -0.1,-0.06 h -0.12 -0.12 a 1.78,1.78 0 0 0 -0.86,0.37 3.78,3.78 0 0 0 -0.63,0.72 z"
       transform="translate(-0.99,-4.1)"
       id="path937"
       style="fill:#000000;fill-opacity:1;stroke:none;stroke-opacity:1" />
    <path
       d="m 125.11,46.21 a 5.5,5.5 0 0 1 0.3,-0.72 3,3 0 0 1 0.41,-0.64 2.33,2.33 0 0 1 0.55,-0.49 2.13,2.13 0 0 1 0.69,-0.3 1.51,1.51 0 0 1 1.1,0.1 1.9,1.9 0 0 1 0.76,0.73 3.18,3.18 0 0 1 0.33,2.24 3.94,3.94 0 0 1 -0.58,1.27 2.41,2.41 0 0 1 -1,0.85 1.68,1.68 0 0 1 -0.89,0.14 1.57,1.57 0 0 1 -0.77,-0.29 2,2 0 0 1 -0.59,-0.64 2.5,2.5 0 0 1 -0.32,-0.88 2.59,2.59 0 0 1 0,-0.62 4.09,4.09 0 0 1 0.07,-0.6 z m 0.85,0.27 a 4.16,4.16 0 0 0 -0.06,0.44 2.46,2.46 0 0 0 0,0.46 1.32,1.32 0 0 0 0.18,0.56 1.12,1.12 0 0 0 0.37,0.38 0.92,0.92 0 0 0 0.49,0.13 1.16,1.16 0 0 0 0.53,-0.18 1.85,1.85 0 0 0 0.58,-0.6 3.52,3.52 0 0 0 0.32,-0.8 2,2 0 0 0 0,-0.74 1.7,1.7 0 0 0 -0.22,-0.69 1,1 0 0 0 -0.47,-0.43 0.81,0.81 0 0 0 -0.69,0 1.52,1.52 0 0 0 -0.69,0.59 4,4 0 0 0 -0.3,0.88 z"
       transform="translate(-0.99,-4.1)"
       id="path939"
       style="fill:#000000;fill-opacity:1;stroke:none;stroke-opacity:1" />
    <path
       d="m 130.44,45 a 0.63,0.63 0 0 1 -0.24,-0.21 0.51,0.51 0 0 1 -0.07,-0.26 0.42,0.42 0 0 1 0.12,-0.3 0.4,0.4 0 0 1 0.32,-0.14 0.86,0.86 0 0 1 0.38,0.12 1.33,1.33 0 0 1 0.36,0.25 3.87,3.87 0 0 1 0.69,-0.46 1.41,1.41 0 0 1 0.73,-0.2 1.24,1.24 0 0 1 0.31,0.06 1.62,1.62 0 0 1 0.41,0.17 1.43,1.43 0 0 1 0.35,0.3 0.67,0.67 0 0 1 0.16,0.43 0.45,0.45 0 0 1 -0.12,0.32 0.41,0.41 0 0 1 -0.3,0.12 0.32,0.32 0 0 1 -0.21,-0.08 l -0.18,-0.16 -0.2,-0.16 a 0.48,0.48 0 0 0 -0.23,-0.07 0.77,0.77 0 0 0 -0.34,0.1 2.71,2.71 0 0 0 -0.35,0.24 3.27,3.27 0 0 0 -0.35,0.3 l -0.28,0.29 v 3.07 a 0.59,0.59 0 0 1 -0.15,0.4 0.4,0.4 0 0 1 -0.58,0 0.58,0.58 0 0 1 -0.16,-0.38 V 45.6 a 0.11,0.11 0 0 0 0,-0.05 v -0.1 a 0.13,0.13 0 0 0 0,-0.06 v -0.33 z"
       transform="translate(-0.99,-4.1)"
       id="path941"
       style="fill:#000000;fill-opacity:1;stroke:none;stroke-opacity:1" />
    <path
       d="m 138.19,48.55 v 0 a 0.46,0.46 0 0 1 0,0.3 0.41,0.41 0 0 1 -0.13,0.22 0.38,0.38 0 0 1 -0.24,0.11 0.51,0.51 0 0 1 -0.32,-0.07 1.92,1.92 0 0 1 -0.18,-0.22 2.13,2.13 0 0 1 -0.16,-0.25 4.06,4.06 0 0 1 -0.46,0.36 1,1 0 0 1 -0.5,0.18 8.26,8.26 0 0 1 -0.86,0 1.29,1.29 0 0 1 -0.81,-0.3 1.63,1.63 0 0 1 -0.48,-0.57 2.25,2.25 0 0 1 -0.22,-0.71 2.84,2.84 0 0 1 0,-0.77 3.16,3.16 0 0 1 0.18,-0.75 2.92,2.92 0 0 1 0.14,-0.31 l 0.18,-0.31 a 3.23,3.23 0 0 1 0.27,-0.44 1.93,1.93 0 0 1 0.35,-0.35 l 0.27,-0.21 0.28,-0.19 a 1.38,1.38 0 0 1 0.3,-0.15 l 0.44,-0.13 a 2.4,2.4 0 0 1 0.46,0 1.15,1.15 0 0 1 0.4,0.07 0.43,0.43 0 0 1 0.3,0.08 0.61,0.61 0 0 1 0.22,0.34 c 0,0.52 0,1 0,1.58 a 10.4,10.4 0 0 0 0.1,1.58 0.79,0.79 0 0 0 0.08,0.25 l 0.15,0.28 a 2.43,2.43 0 0 1 0.15,0.26 0.45,0.45 0 0 1 0.09,0.12 z m -1.39,-0.8 v 0 0 a 7.46,7.46 0 0 1 -0.14,-1.43 c 0,-0.5 0,-1 0,-1.37 h -0.22 l -0.23,0.06 -0.21,0.08 a 0.4,0.4 0 0 0 -0.13,0.06 1.83,1.83 0 0 0 -0.56,0.42 2.05,2.05 0 0 0 -0.37,0.58 2.94,2.94 0 0 0 -0.23,0.67 3.35,3.35 0 0 0 -0.07,0.71 1.21,1.21 0 0 0 0.05,0.18 l 0.06,0.18 0.25,0.11 0.12,0.13 0.2,0.08 0.2,0.07 h 0.36 a 0.8,0.8 0 0 0 0.34,-0.05 L 136.54,48 a 2.42,2.42 0 0 0 0.26,-0.25 z"
       transform="translate(-0.99,-4.1)"
       id="path943"
       style="fill:#000000;fill-opacity:1;stroke:none;stroke-opacity:1" />
    <path
       d="m 139.19,42.39 a 0.64,0.64 0 0 1 0.15,-0.43 0.46,0.46 0 0 1 0.37,-0.18 0.47,0.47 0 0 1 0.37,0.18 0.6,0.6 0 0 1 0.16,0.43 0.6,0.6 0 0 1 -0.16,0.42 0.47,0.47 0 0 1 -0.37,0.18 0.46,0.46 0 0 1 -0.37,-0.18 0.64,0.64 0 0 1 -0.15,-0.42 z m 1,6.28 a 0.59,0.59 0 0 1 -0.15,0.4 0.41,0.41 0 0 1 -0.3,0.13 0.39,0.39 0 0 1 -0.28,-0.12 0.61,0.61 0 0 1 -0.17,-0.37 c 0,-0.73 0,-1.47 0,-2.22 0,-0.75 0,-1.49 0,-2.22 a 0.73,0.73 0 0 1 0.18,-0.34 0.37,0.37 0 0 1 0.27,-0.12 0.4,0.4 0 0 1 0.26,0.11 0.51,0.51 0 0 1 0.18,0.32 c 0,0.72 0,1.46 0,2.22 0,0.76 0,1.54 0.01,2.21 z"
       transform="translate(-0.99,-4.1)"
       id="path945"
       style="fill:#000000;fill-opacity:1;stroke:none;stroke-opacity:1" />
    <path
       d="m 145.37,49.09 a 0.42,0.42 0 0 1 -0.3,0.14 0.39,0.39 0 0 1 -0.28,-0.12 0.59,0.59 0 0 1 -0.17,-0.38 v -1.06 c 0,-0.35 0,-0.7 0,-1.05 0,-0.35 0,-0.51 0,-0.76 a 6.64,6.64 0 0 0 -0.05,-0.77 0.44,0.44 0 0 0 -0.19,-0.21 0.62,0.62 0 0 0 -0.25,0 1.57,1.57 0 0 0 -1.29,0.72 l -0.19,0.32 a 0.93,0.93 0 0 0 -0.09,0.39 v 1.18 c 0,0.39 0,0.78 0,1.18 a 0.61,0.61 0 0 1 -0.15,0.4 0.45,0.45 0 0 1 -0.3,0.13 0.41,0.41 0 0 1 -0.28,-0.12 0.58,0.58 0 0 1 -0.16,-0.38 v -1.11 c 0,-0.35 0,-0.69 0,-1 0,-0.31 0,-0.68 0,-1 v -1.14 a 0.72,0.72 0 0 1 0.18,-0.35 0.36,0.36 0 0 1 0.27,-0.11 0.43,0.43 0 0 1 0.27,0.1 0.66,0.66 0 0 1 0.18,0.32 v 0.1 a 2.23,2.23 0 0 1 0.71,-0.46 2.05,2.05 0 0 1 0.8,-0.17 1.5,1.5 0 0 1 0.75,0.2 1.43,1.43 0 0 1 0.58,0.63 1.23,1.23 0 0 1 0.1,0.38 3.59,3.59 0 0 1 0,0.47 v 0.51 c 0,0.17 0,0.34 0,0.49 v 2.14 a 0.51,0.51 0 0 1 -0.14,0.39 z"
       transform="translate(-0.99,-4.1)"
       id="path947"
       style="fill:#000000;fill-opacity:1;stroke:none;stroke-opacity:1" />
    <path
       d="M 146.84,42.39 A 0.6,0.6 0 0 1 147,42 a 0.45,0.45 0 0 1 0.36,-0.18 0.49,0.49 0 0 1 0.38,0.18 0.64,0.64 0 0 1 0,0.85 0.49,0.49 0 0 1 -0.38,0.18 0.45,0.45 0 0 1 -0.36,-0.18 0.6,0.6 0 0 1 -0.16,-0.46 z m 1,6.28 a 0.54,0.54 0 0 1 -0.14,0.4 0.41,0.41 0 0 1 -0.3,0.13 0.44,0.44 0 0 1 -0.29,-0.12 0.61,0.61 0 0 1 -0.16,-0.37 c 0,-0.73 0,-1.47 0,-2.22 0,-0.75 0,-1.49 0,-2.22 a 0.73,0.73 0 0 1 0.17,-0.34 0.37,0.37 0 0 1 0.27,-0.12 0.4,0.4 0 0 1 0.27,0.11 0.61,0.61 0 0 1 0.18,0.32 c 0,0.72 0,1.46 0,2.22 0,0.76 0,1.54 0,2.21 z"
       transform="translate(-0.99,-4.1)"
       id="path949"
       style="fill:#000000;fill-opacity:1;stroke:none;stroke-opacity:1" />
    <path
       d="m 150.43,48.44 a 0.62,0.62 0 0 1 -0.19,0.46 0.61,0.61 0 0 1 -0.45,0.19 0.65,0.65 0 0 1 -0.68,-0.65 0.68,0.68 0 0 1 0.19,-0.46 0.66,0.66 0 0 1 0.49,-0.2 0.62,0.62 0 0 1 0.45,0.2 0.63,0.63 0 0 1 0.19,0.46 z"
       transform="translate(-0.99,-4.1)"
       id="path951"
       style="fill:#000000;fill-opacity:1;stroke:none;stroke-opacity:1" />
    <path
       d="m 154.27,47.8 a 0.48,0.48 0 0 1 0.36,-0.15 0.41,0.41 0 0 1 0.29,0.12 0.51,0.51 0 0 1 0.12,0.31 0.55,0.55 0 0 1 -0.14,0.38 1.93,1.93 0 0 1 -0.84,0.59 1.88,1.88 0 0 1 -1,0.1 1.85,1.85 0 0 1 -0.88,-0.4 1.9,1.9 0 0 1 -0.59,-0.87 3.57,3.57 0 0 1 -0.18,-0.66 3.91,3.91 0 0 1 0,-0.68 3.81,3.81 0 0 1 0.24,-1.12 3.33,3.33 0 0 1 0.58,-1 2.16,2.16 0 0 1 0.86,-0.61 1.54,1.54 0 0 1 1.08,0 2.69,2.69 0 0 1 0.54,0.25 2.6,2.6 0 0 1 0.45,0.38 0.67,0.67 0 0 1 0.12,0.36 0.41,0.41 0 0 1 -0.09,0.28 0.46,0.46 0 0 1 -0.25,0.15 0.52,0.52 0 0 1 -0.35,-0.07 1.43,1.43 0 0 0 -0.7,-0.46 0.91,0.91 0 0 0 -0.63,0.07 1.4,1.4 0 0 0 -0.51,0.44 2.34,2.34 0 0 0 -0.34,0.69 2.74,2.74 0 0 0 -0.12,0.81 2,2 0 0 0 0.15,0.78 1.2,1.2 0 0 0 0.36,0.5 1,1 0 0 0 0.47,0.2 1.07,1.07 0 0 0 0.52,-0.08 1.41,1.41 0 0 0 0.48,-0.31 z"
       transform="translate(-0.99,-4.1)"
       id="path953"
       style="fill:#000000;fill-opacity:1;stroke:none;stroke-opacity:1" />
    <path
       d="m 155.81,46.21 a 5.5,5.5 0 0 1 0.3,-0.72 3,3 0 0 1 0.41,-0.64 2.33,2.33 0 0 1 0.55,-0.49 2.13,2.13 0 0 1 0.69,-0.3 1.51,1.51 0 0 1 1.1,0.1 1.9,1.9 0 0 1 0.76,0.73 3.18,3.18 0 0 1 0.33,2.24 3.74,3.74 0 0 1 -0.58,1.27 2.44,2.44 0 0 1 -1,0.85 1.73,1.73 0 0 1 -0.9,0.14 1.61,1.61 0 0 1 -0.77,-0.29 2,2 0 0 1 -0.59,-0.64 2.71,2.71 0 0 1 -0.32,-0.88 2.59,2.59 0 0 1 0,-0.62 4.09,4.09 0 0 1 0.07,-0.6 z m 0.85,0.27 a 4.16,4.16 0 0 0 -0.06,0.44 2.46,2.46 0 0 0 0,0.46 1.32,1.32 0 0 0 0.18,0.56 1.12,1.12 0 0 0 0.37,0.38 0.92,0.92 0 0 0 0.49,0.13 1.23,1.23 0 0 0 0.54,-0.18 1.93,1.93 0 0 0 0.57,-0.6 3.52,3.52 0 0 0 0.32,-0.8 2.26,2.26 0 0 0 0,-0.74 1.87,1.87 0 0 0 -0.23,-0.69 1,1 0 0 0 -0.47,-0.43 0.81,0.81 0 0 0 -0.69,0 1.52,1.52 0 0 0 -0.69,0.59 4,4 0 0 0 -0.33,0.88 z"
       transform="translate(-0.99,-4.1)"
       id="path955"
       style="fill:#000000;fill-opacity:1;stroke:none;stroke-opacity:1" />
    <path
       d="m 163.73,45.75 a 0.22,0.22 0 0 1 0,-0.09 v -0.13 a 1,1 0 0 0 -0.41,-0.52 1.47,1.47 0 0 0 -0.62,-0.17 1.68,1.68 0 0 0 -0.46,0.24 l -0.23,0.31 -0.06,0.08 -0.07,0.05 v 3.18 a 0.56,0.56 0 0 1 -0.15,0.39 0.39,0.39 0 0 1 -0.58,0 0.64,0.64 0 0 1 -0.16,-0.38 v -4.45 a 0.73,0.73 0 0 1 0.17,-0.34 0.41,0.41 0 0 1 0.28,-0.11 0.44,0.44 0 0 1 0.25,0.1 0.62,0.62 0 0 1 0.18,0.31 2.1,2.1 0 0 1 0.42,-0.24 1.27,1.27 0 0 1 0.52,-0.11 1.7,1.7 0 0 1 0.79,0.21 2,2 0 0 1 0.66,0.54 l 0.26,-0.26 a 1.68,1.68 0 0 1 0.29,-0.24 2,2 0 0 1 0.31,-0.19 0.78,0.78 0 0 1 0.33,-0.07 1.92,1.92 0 0 1 0.66,0.12 1.94,1.94 0 0 1 0.58,0.33 2,2 0 0 1 0.42,0.5 1.27,1.27 0 0 1 0.15,0.6 v 0 c 0,0 0,0 0,0 0,0 0,0 0,0 v 0 3.13 a 0.59,0.59 0 0 1 -0.15,0.4 0.41,0.41 0 0 1 -0.3,0.13 0.39,0.39 0 0 1 -0.28,-0.12 0.64,0.64 0 0 1 -0.17,-0.37 V 45.52 A 0.89,0.89 0 0 0 166,45 1,1 0 0 0 165.5,44.86 0.9,0.9 0 0 0 165,45 a 1.09,1.09 0 0 0 -0.38,0.55 v 3.11 a 0.58,0.58 0 0 1 -0.14,0.4 0.44,0.44 0 0 1 -0.3,0.13 0.42,0.42 0 0 1 -0.29,-0.12 0.64,0.64 0 0 1 -0.16,-0.38 V 45.8 a 0.07,0.07 0 0 1 0,-0.05 z"
       transform="translate(-0.99,-4.1)"
       id="path957"
       style="fill:#000000;fill-opacity:1;stroke:none;stroke-opacity:1" />
    <path
       class="cls-1"
       d="M 165.16,59.49 H 82 A 8.37,8.37 0 0 1 73.64,51.12 V 21.78 l -7.53,-8.36 h 99.08 a 8.37,8.37 0 0 1 8.36,8.36 v 29.34 a 8.37,8.37 0 0 1 -8.39,8.37 z"
       transform="translate(-0.99,-4.1)"
       id="path959"
       style="fill:none;fill-opacity:1;stroke:#000000;stroke-opacity:1"
       inkscape:label="bubble" />
    <path
       d="M 93.65,23.86 A 1.16,1.16 0 0 1 92.57,23 1.81,1.81 0 0 0 91.99,22.13 3,3 0 0 0 90.82,22 q -1.62,0 -3.61,2.49 a 10.37,10.37 0 0 0 -2.69,6.34 3.6,3.6 0 0 0 0.93,2.49 3,3 0 0 0 2.3,1.08 5.15,5.15 0 0 0 2.32,-0.59 17.93,17.93 0 0 0 2,-1.33 A 2,2 0 0 1 93,32 a 1,1 0 0 1 0.81,0.37 1.17,1.17 0 0 1 0.33,0.81 1.15,1.15 0 0 1 -0.43,0.89 9,9 0 0 1 -6,2.62 5.08,5.08 0 0 1 -3.93,-1.78 5.94,5.94 0 0 1 -1.55,-4.09 c 0,-2.53 1.07,-5.13 3.19,-7.8 q 2.66,-3.33 5.36,-3.33 a 9.61,9.61 0 0 1 1,0.05 5.09,5.09 0 0 1 0.78,0.16 1.19,1.19 0 0 1 1,-0.57 c 0.51,0 0.84,0.34 1,1 a 11.78,11.78 0 0 1 0.18,2.24 1.37,1.37 0 0 1 -0.24,0.8 1,1 0 0 1 -0.85,0.49 z"
       transform="translate(-0.99,-4.1)"
       id="path961"
       style="fill:#000000;fill-opacity:1;stroke:none;stroke-opacity:1" />
    <path
       d="m 106.06,37.15 a 1,1 0 0 1 -1,-0.85 19.39,19.39 0 0 1 -0.47,-2.62 21.25,21.25 0 0 1 -0.2,-2.67 c 0,-0.19 0,-0.49 0,-0.89 0,-0.4 0,-0.69 0,-0.88 0,-1.41 -0.35,-2.11 -1.05,-2.11 a 3.33,3.33 0 0 0 -2.55,1.29 15.2,15.2 0 0 0 -1.57,2.52 18.82,18.82 0 0 1 -0.35,5.06 1,1 0 0 1 -1,0.7 1.2,1.2 0 0 1 -0.8,-0.31 1,1 0 0 1 -0.35,-0.77 1.81,1.81 0 0 1 0.1,-0.49 8.83,8.83 0 0 0 0.18,-1.64 v -1.66 -8.25 c 0,-0.93 0.08,-1.55 0.08,-1.87 A 5.34,5.34 0 0 0 97,20.63 a 5.39,5.39 0 0 1 -0.11,-1.07 1,1 0 0 1 0.33,-0.78 1.14,1.14 0 0 1 0.8,-0.3 1,1 0 0 1 1.07,1 12.2,12.2 0 0 1 0.18,2 c 0,0.78 0,1.6 -0.08,2.46 -0.08,0.86 -0.06,1.63 0,2.45 v 1 a 6.8,6.8 0 0 1 2,-1.85 4.43,4.43 0 0 1 2.23,-0.61 2.72,2.72 0 0 1 2.56,1.21 6.78,6.78 0 0 1 0.56,2.88 l 0.09,2.14 0.22,2.33 c 0.11,0.88 0.23,1.65 0.38,2.32 a 1.39,1.39 0 0 1 0,0.32 1,1 0 0 1 -0.34,0.77 1.12,1.12 0 0 1 -0.83,0.25 z"
       transform="translate(-0.99,-4.1)"
       id="path963"
       style="fill:#000000;fill-opacity:1;stroke:none;stroke-opacity:1" />
    <path
       d="m 118.71,37.19 c -0.14,0 -0.4,-0.16 -0.78,-0.49 a 5.76,5.76 0 0 1 -0.75,-0.82 15,15 0 0 1 -1.89,0.88 4.2,4.2 0 0 1 -1.37,0.3 4.67,4.67 0 0 1 -3.83,-1.48 6.72,6.72 0 0 1 -1.09,-4.27 6.4,6.4 0 0 1 1.87,-4.64 6,6 0 0 1 4.46,-1.93 5.81,5.81 0 0 1 2.18,0.5 c 1,0.42 1.53,0.93 1.53,1.52 a 0.76,0.76 0 0 1 -0.22,0.54 7.38,7.38 0 0 0 -0.18,1.4 c 0,0.65 -0.06,1.48 -0.07,2.5 a 9.27,9.27 0 0 0 0.19,2.2 15.66,15.66 0 0 0 0.71,2 c 0,0.13 0.13,0.33 0.26,0.59 l 0.06,0.19 a 1,1 0 0 1 -0.31,0.74 1,1 0 0 1 -0.77,0.27 z m -2.34,-7.8 a 7.78,7.78 0 0 1 0.07,-1 c 0,-0.38 0.1,-0.78 0.18,-1.21 a 6.48,6.48 0 0 0 -0.71,-0.32 1.86,1.86 0 0 0 -0.48,-0.1 3.91,3.91 0 0 0 -3,1.42 4.79,4.79 0 0 0 -1.26,3.27 4.8,4.8 0 0 0 0.65,2.76 2.21,2.21 0 0 0 2,0.93 3.93,3.93 0 0 0 1.83,-0.4 6.13,6.13 0 0 0 1.13,-0.85 40.67,40.67 0 0 1 -0.41,-4.5 z"
       transform="translate(-0.99,-4.1)"
       id="path965"
       style="fill:#000000;fill-opacity:1;stroke:none;stroke-opacity:1" />
    <path
       d="m 129.21,26.89 c -0.16,0 -0.34,0 -0.55,0 -0.21,0 -0.4,0 -0.56,0 -0.16,0 -0.68,0 -1.53,0.17 l 0.22,6.63 v 1.06 c 0,1.64 -0.36,2.46 -1.18,2.46 a 1.16,1.16 0 0 1 -0.78,-0.29 1,1 0 0 1 -0.33,-0.73 c 0,-0.28 0,-0.71 0,-1.28 0,-0.57 0,-1 0,-1.28 L 124.36,27 c -0.54,0 -1.37,-0.09 -2.49,-0.19 a 1,1 0 0 1 -1,-1.11 1.16,1.16 0 0 1 0.31,-0.82 1,1 0 0 1 0.77,-0.33 l 2.36,0.19 c 0,-0.38 0,-0.89 0,-1.53 0,-0.64 -0.05,-1.1 -0.05,-1.38 a 1,1 0 0 1 0.32,-0.78 1.12,1.12 0 0 1 0.8,-0.31 c 0.67,0 1.06,0.55 1.18,1.65 0,0.27 0,0.61 0,1 v 0.66 0.69 q 1.39,-0.18 1.59,-0.18 a 6.76,6.76 0 0 1 1.53,0.11 1,1 0 0 1 0.68,1.06 1.09,1.09 0 0 1 -0.31,0.81 1,1 0 0 1 -0.84,0.35 z"
       transform="translate(-0.99,-4.1)"
       id="path967"
       style="fill:#000000;fill-opacity:1;stroke:none;stroke-opacity:1" />
    <path
       d="m 137.77,37 a 6.28,6.28 0 0 1 -4.1,-1.27 4.76,4.76 0 0 1 -1.67,-3.96 8.21,8.21 0 0 1 1.41,-4.89 4.81,4.81 0 0 1 4.11,-2.15 6.54,6.54 0 0 1 3,0.62 2.53,2.53 0 0 1 1.48,2.38 2.58,2.58 0 0 1 -1.27,2.05 18.13,18.13 0 0 1 -2.42,1.22 l -4.29,2 a 4.23,4.23 0 0 0 1.57,1.41 4.86,4.86 0 0 0 2.18,0.47 7.09,7.09 0 0 0 1.82,-0.29 3,3 0 0 0 1.71,-1 c 0.25,-0.41 0.52,-0.61 0.82,-0.61 a 1,1 0 0 1 0.7,0.3 1,1 0 0 1 0.31,0.69 c 0,0.83 -0.67,1.55 -2,2.15 A 8.37,8.37 0 0 1 137.77,37 Z m -0.3,-10.22 a 2.88,2.88 0 0 0 -2.28,1.06 7.19,7.19 0 0 0 -1.36,3.16 l 3.45,-1.64 a 14.54,14.54 0 0 0 2.89,-1.72 3.84,3.84 0 0 0 -2.7,-0.89 z"
       transform="translate(-0.99,-4.1)"
       id="path969"
       style="fill:#000000;fill-opacity:1;stroke:none;stroke-opacity:1" />
    <path
       d="m 153.89,37.19 c -0.15,0 -0.4,-0.16 -0.78,-0.49 a 5.21,5.21 0 0 1 -0.75,-0.82 14.39,14.39 0 0 1 -1.9,0.88 4.1,4.1 0 0 1 -1.36,0.3 4.66,4.66 0 0 1 -3.83,-1.48 6.66,6.66 0 0 1 -1.13,-4.27 6.43,6.43 0 0 1 1.86,-4.64 6,6 0 0 1 4.46,-1.93 5.9,5.9 0 0 1 2.19,0.5 c 1,0.42 1.53,0.93 1.53,1.52 a 0.78,0.78 0 0 1 -0.23,0.54 8.59,8.59 0 0 0 -0.17,1.4 c 0,0.65 -0.07,1.48 -0.07,2.5 a 8.77,8.77 0 0 0 0.19,2.2 16.79,16.79 0 0 0 0.7,2 c 0.06,0.13 0.14,0.33 0.26,0.59 l 0.07,0.19 a 1,1 0 0 1 -0.31,0.74 1,1 0 0 1 -0.73,0.27 z m -2.34,-7.8 a 9.76,9.76 0 0 1 0.06,-1 c 0,-0.38 0.11,-0.78 0.19,-1.21 a 7.45,7.45 0 0 0 -0.71,-0.32 1.86,1.86 0 0 0 -0.48,-0.1 3.91,3.91 0 0 0 -3,1.42 4.79,4.79 0 0 0 -1.26,3.27 4.73,4.73 0 0 0 0.65,2.76 2.21,2.21 0 0 0 1.95,0.93 3.93,3.93 0 0 0 1.83,-0.4 6.13,6.13 0 0 0 1.13,-0.85 40.67,40.67 0 0 1 -0.36,-4.5 z"
       transform="translate(-0.99,-4.1)"
       id="path971"
       style="fill:#000000;fill-opacity:1;stroke:none;stroke-opacity:1" />
    <path
       d="m 166,29.9 c 0,0.54 0,1.35 0,2.42 0,1.07 0,1.89 0,2.43 0,0.16 0,0.41 0,0.75 0,0.34 0,0.59 0,0.75 a 1,1 0 0 1 -0.33,0.79 1.08,1.08 0 0 1 -0.79,0.31 c -0.58,0 -1,-0.36 -1.1,-1.07 a 6.87,6.87 0 0 1 -3.23,0.73 4.23,4.23 0 0 1 -2.44,-0.65 2.94,2.94 0 0 1 -1.27,-2.1 36.83,36.83 0 0 1 -0.43,-5.29 21.32,21.32 0 0 1 0.33,-3.5 1,1 0 0 1 1.07,-1 1.12,1.12 0 0 1 0.81,0.31 1.07,1.07 0 0 1 0.32,0.79 12.8,12.8 0 0 1 -0.16,1.65 12.85,12.85 0 0 0 -0.16,1.73 q 0,1.88 0.12,3.21 a 11.23,11.23 0 0 0 0.37,2.14 3.47,3.47 0 0 0 0.73,0.31 2.5,2.5 0 0 0 0.71,0.11 11.49,11.49 0 0 0 3.17,-0.49 V 32 29.83 a 36.55,36.55 0 0 1 0.21,-4.21 1,1 0 0 1 1.09,-1 1.12,1.12 0 0 1 0.81,0.31 1,1 0 0 1 0.3,0.79 z"
       transform="translate(-0.99,-4.1)"
       id="path973"
       style="fill:#000000;fill-opacity:1;stroke:none;stroke-opacity:1" />
  </g>
  <g
     id="g1158"
     inkscape:groupmode="layer"
     inkscape:label="g1158bg"
     transform="translate(7.5076281,6.9999315)">
    <g
       id="g1156"
       data-name="katman 1">
      <path
         class="cls-2"
         d="m 44.59,26.19 h -21.2 c -2.68,0 -4.69,1.88 -4.48,4.15 l 2.34,25.81 c 0.14,1.58 2,2.84 4.18,2.84 h 17.12 c 2.17,0 4,-1.26 4.18,-2.84 l 2.34,-25.81 c 0.21,-2.27 -1.8,-4.15 -4.48,-4.15 z"
         transform="translate(-0.99,-4.1)"
         id="path1120"
         style="stroke:#ffffff;stroke-width:8;stroke-miterlimit:4;stroke-dasharray:none;stroke-opacity:1" />
      <rect
         class="cls-3"
         x="44.849998"
         y="42.509998"
         width="13.84"
         height="26.530001"
         rx="4.0900002"
         transform="rotate(100.73,52.970654,53.309302)"
         id="rect1122"
         style="stroke:#ffffff;stroke-width:8;stroke-miterlimit:4;stroke-dasharray:none;stroke-opacity:1" />
      <path
         class="cls-4"
         d="m 63.51,65 -2.95,-0.56 c -5.91,-1.12 -4.62,-7.92 1.28,-6.8 l 3,0.56 -3,-0.56 c -5.9,-1.12 -4.61,-7.92 1.29,-6.8 l 2.95,0.56 z"
         transform="translate(-0.99,-4.1)"
         id="path1124"
         style="stroke:#ffffff;stroke-width:8;stroke-miterlimit:4;stroke-dasharray:none;stroke-opacity:1" />
      <rect
         class="cls-3"
         x="9.5600004"
         y="42.549999"
         width="13.84"
         height="26.530001"
         rx="4.0900002"
         transform="rotate(79.27,18.460401,53.166163)"
         id="rect1126"
         style="stroke:#ffffff;stroke-width:8;stroke-miterlimit:4;stroke-dasharray:none;stroke-opacity:1" />
      <path
         class="cls-4"
         d="m 2.16,51.48 3,-0.56 C 11,49.8 12.3,56.6 6.4,57.72 l -2.95,0.56 3,-0.56 c 5.9,-1.12 7.19,5.68 1.29,6.8 l -3,0.56 z"
         transform="translate(-0.99,-4.1)"
         id="path1128"
         style="stroke:#ffffff;stroke-width:8;stroke-miterlimit:4;stroke-dasharray:none;stroke-opacity:1" />
      <rect
         class="cls-3"
         x="35.700001"
         y="32.529999"
         width="13.84"
         height="30.48"
         rx="4.0900002"
         transform="rotate(5.01,88.992527,34.467135)"
         id="rect1130"
         style="stroke:#ffffff;stroke-width:8;stroke-miterlimit:4;stroke-dasharray:none;stroke-opacity:1" />
      <path
         class="cls-4"
         d="m 34.39,62.35 0.27,-3 c 0.52,-6 7.41,-5.38 6.89,0.61 l -0.26,3 0.26,-3 c 0.52,-6 7.41,-5.38 6.89,0.6 l -0.26,3 z"
         transform="translate(-0.99,-4.1)"
         id="path1132"
         style="stroke:#ffffff;stroke-width:8;stroke-miterlimit:4;stroke-dasharray:none;stroke-opacity:1" />
      <rect
         class="cls-3"
         x="17.120001"
         y="32.529999"
         width="13.84"
         height="30.48"
         rx="4.0900002"
         transform="rotate(174.99,23.634479,45.704302)"
         id="rect1134"
         style="stroke:#ffffff;stroke-width:8;stroke-miterlimit:4;stroke-dasharray:none;stroke-opacity:1" />
      <path
         class="cls-4"
         d="m 18.48,63.56 -0.27,-3 c -0.52,-6 6.37,-6.59 6.9,-0.61 l 0.26,3 -0.26,-3 c -0.53,-6 6.36,-6.59 6.89,-0.6 l 0.26,3 z"
         transform="translate(-0.99,-4.1)"
         id="path1136"
         style="stroke:#ffffff;stroke-width:8;stroke-miterlimit:4;stroke-dasharray:none;stroke-opacity:1" />
      <rect
         class="cls-4"
         x="17.4"
         y="7.9099998"
         width="10"
         height="15"
         rx="3"
         transform="rotate(-7.42,-9.7228889,20.973713)"
         id="rect1138"
         style="stroke:#ffffff;stroke-width:8;stroke-miterlimit:4;stroke-dasharray:none;stroke-opacity:1" />
      <rect
         class="cls-4"
         x="37.23"
         y="5.3200002"
         width="10"
         height="15"
         rx="3"
         transform="rotate(-7.42,10.113072,18.388209)"
         id="rect1140"
         style="stroke:#ffffff;stroke-width:8;stroke-miterlimit:4;stroke-dasharray:none;stroke-opacity:1" />
      <rect
         class="cls-5"
         x="19.209999"
         y="10.92"
         width="6"
         height="6"
         rx="2"
         transform="rotate(-7.42,-9.8592191,19.493621)"
         id="rect1142"
         style="stroke:#ffffff;stroke-width:8;stroke-miterlimit:4;stroke-dasharray:none;stroke-opacity:1" />
      <rect
         class="cls-5"
         x="39.040001"
         y="8.3299999"
         width="6"
         height="6"
         rx="2"
         transform="rotate(-7.42,9.9767417,16.908117)"
         id="rect1144"
         style="stroke:#ffffff;stroke-width:8;stroke-miterlimit:4;stroke-dasharray:none;stroke-opacity:1" />
      <path
         class="cls-2"
         d="m 22,11.93 v 0 a 2,2 0 0 1 2.24,1.73 v 0 a 2,2 0 0 1 -1.72,2.24 v 0 a 2,2 0 0 1 -2.25,-1.72 v 0 A 2,2 0 0 1 22,11.93 Z"
         transform="translate(-0.99,-4.1)"
         id="path1146"
         style="stroke:#ffffff;stroke-width:8;stroke-miterlimit:4;stroke-dasharray:none;stroke-opacity:1" />
      <path
         class="cls-2"
         d="m 41.78,9.35 v 0 A 2,2 0 0 1 44,11.08 v 0 a 2,2 0 0 1 -1.72,2.24 v 0 a 2,2 0 0 1 -2.24,-1.73 v 0 a 2,2 0 0 1 1.74,-2.24 z"
         transform="translate(-0.99,-4.1)"
         id="path1148"
         style="stroke:#ffffff;stroke-width:8;stroke-miterlimit:4;stroke-dasharray:none;stroke-opacity:1" />
      <rect
         class="cls-6"
         x="8.6099997"
         y="16.530001"
         width="50"
         height="15"
         rx="3"
         transform="rotate(-7.42,1.4878436,29.598941)"
         id="rect1150"
         style="stroke:#ffffff;stroke-width:8;stroke-miterlimit:4;stroke-dasharray:none;stroke-opacity:1" />
      <rect
         class="cls-7"
         x="11.61"
         y="19.530001"
         width="44"
         height="9"
         rx="3"
         transform="rotate(-7.42,1.4878436,29.598941)"
         id="rect1152"
         style="stroke:#ffffff;stroke-width:8;stroke-miterlimit:4;stroke-dasharray:none;stroke-opacity:1" />
      <path
         class="cls-8"
         d="m 12.38,31.33 4.29,-9.63 6.61,8.21 4.29,-9.63 6.62,8.21 4.29,-9.63 6.62,8.21 4.29,-9.63 6.61,8.21"
         transform="translate(-0.99,-4.1)"
         id="path1154"
         style="stroke:#ffffff;stroke-width:8;stroke-miterlimit:4;stroke-dasharray:none;stroke-opacity:1" />
    </g>
  </g>
  <g
     id="g1118"
     style="display:inline"
     transform="translate(7.5076281,6.9999315)">
    <g
       id="katman_1"
       data-name="katman 1">
      <path
         class="cls-2"
         d="m 44.59,26.19 h -21.2 c -2.68,0 -4.69,1.88 -4.48,4.15 l 2.34,25.81 c 0.14,1.58 2,2.84 4.18,2.84 h 17.12 c 2.17,0 4,-1.26 4.18,-2.84 l 2.34,-25.81 c 0.21,-2.27 -1.8,-4.15 -4.48,-4.15 z"
         transform="translate(-0.99,-4.1)"
         id="path976" />
      <rect
         class="cls-3"
         x="44.849998"
         y="42.509998"
         width="13.84"
         height="26.530001"
         rx="4.0900002"
         transform="rotate(100.73,52.970654,53.309302)"
         id="rect978" />
      <path
         class="cls-4"
         d="m 63.51,65 -2.95,-0.56 c -5.91,-1.12 -4.62,-7.92 1.28,-6.8 l 3,0.56 -3,-0.56 c -5.9,-1.12 -4.61,-7.92 1.29,-6.8 l 2.95,0.56 z"
         transform="translate(-0.99,-4.1)"
         id="path980" />
      <rect
         class="cls-3"
         x="9.5600004"
         y="42.549999"
         width="13.84"
         height="26.530001"
         rx="4.0900002"
         transform="rotate(79.27,18.460401,53.166163)"
         id="rect982" />
      <path
         class="cls-4"
         d="m 2.16,51.48 3,-0.56 C 11,49.8 12.3,56.6 6.4,57.72 l -2.95,0.56 3,-0.56 c 5.9,-1.12 7.19,5.68 1.29,6.8 l -3,0.56 z"
         transform="translate(-0.99,-4.1)"
         id="path984" />
      <rect
         class="cls-3"
         x="35.700001"
         y="32.529999"
         width="13.84"
         height="30.48"
         rx="4.0900002"
         transform="rotate(5.01,88.992527,34.467135)"
         id="rect986" />
      <path
         class="cls-4"
         d="m 34.39,62.35 0.27,-3 c 0.52,-6 7.41,-5.38 6.89,0.61 l -0.26,3 0.26,-3 c 0.52,-6 7.41,-5.38 6.89,0.6 l -0.26,3 z"
         transform="translate(-0.99,-4.1)"
         id="path988" />
      <rect
         class="cls-3"
         x="17.120001"
         y="32.529999"
         width="13.84"
         height="30.48"
         rx="4.0900002"
         transform="rotate(174.99,23.634479,45.704302)"
         id="rect990" />
      <path
         class="cls-4"
         d="m 18.48,63.56 -0.27,-3 c -0.52,-6 6.37,-6.59 6.9,-0.61 l 0.26,3 -0.26,-3 c -0.53,-6 6.36,-6.59 6.89,-0.6 l 0.26,3 z"
         transform="translate(-0.99,-4.1)"
         id="path992" />
      <rect
         class="cls-4"
         x="17.4"
         y="7.9099998"
         width="10"
         height="15"
         rx="3"
         transform="rotate(-7.42,-9.7228889,20.973713)"
         id="rect994" />
      <rect
         class="cls-4"
         x="37.23"
         y="5.3200002"
         width="10"
         height="15"
         rx="3"
         transform="rotate(-7.42,10.113072,18.388209)"
         id="rect996" />
      <rect
         class="cls-5"
         x="19.209999"
         y="10.92"
         width="6"
         height="6"
         rx="2"
         transform="rotate(-7.42,-9.8592191,19.493621)"
         id="rect998" />
      <rect
         class="cls-5"
         x="39.040001"
         y="8.3299999"
         width="6"
         height="6"
         rx="2"
         transform="rotate(-7.42,9.9767417,16.908117)"
         id="rect1000" />
      <path
         class="cls-2"
         d="m 22,11.93 v 0 a 2,2 0 0 1 2.24,1.73 v 0 a 2,2 0 0 1 -1.72,2.24 v 0 a 2,2 0 0 1 -2.25,-1.72 v 0 A 2,2 0 0 1 22,11.93 Z"
         transform="translate(-0.99,-4.1)"
         id="path1002" />
      <path
         class="cls-2"
         d="m 41.78,9.35 v 0 A 2,2 0 0 1 44,11.08 v 0 a 2,2 0 0 1 -1.72,2.24 v 0 a 2,2 0 0 1 -2.24,-1.73 v 0 a 2,2 0 0 1 1.74,-2.24 z"
         transform="translate(-0.99,-4.1)"
         id="path1004" />
      <rect
         class="cls-6"
         x="8.6099997"
         y="16.530001"
         width="50"
         height="15"
         rx="3"
         transform="rotate(-7.42,1.4878436,29.598941)"
         id="rect1006" />
      <rect
         class="cls-7"
         x="11.61"
         y="19.530001"
         width="44"
         height="9"
         rx="3"
         transform="rotate(-7.42,1.4878436,29.598941)"
         id="rect1008" />
      <path
         class="cls-8"
         d="m 12.38,31.33 4.29,-9.63 6.61,8.21 4.29,-9.63 6.62,8.21 4.29,-9.63 6.62,8.21 4.29,-9.63 6.61,8.21"
         transform="translate(-0.99,-4.1)"
         id="path1010" />
    </g>
  </g>
  <metadata
     id="metadata1097">
    <rdf:RDF>
      <cc:Work
         rdf:about="">
        <dc:title>logo-full</dc:title>
      </cc:Work>
    </rdf:RDF>
  </metadata>
</svg>
